<?xml version="1.0" encoding="UTF-8"?>
<svg width="192" height="192" viewBox="0 0 192 192" fill="none" xmlns="http://www.w3.org/2000/svg">
  <!-- Organic shape background inspired by the uploaded logo -->
  <path d="M48 32C32 32 24 44 24 60C24 68 20 76 20 96C20 116 20 124 24 132C24 148 32 160 48 160H72C80 160 88 156 96 156C104 156 112 160 120 160H144C160 160 168 148 168 132C172 124 172 116 172 96C172 76 172 68 168 60C168 44 160 32 144 32H120C112 32 104 36 96 36C88 36 80 32 72 32H48Z" fill="#5b64f5"/>
  <text x="96" y="80" font-family="system-ui, -apple-system, sans-serif" font-size="32" font-weight="900" text-anchor="middle" fill="white">교환</text>
  <text x="96" y="125" font-family="system-ui, -apple-system, sans-serif" font-size="32" font-weight="900" text-anchor="middle" fill="white">마켓</text>
</svg>